<?xml version="1.0" encoding="UTF-8" standalone="no"?>
<!-- Created with Inkscape (http://www.inkscape.org/) -->

<svg
   xmlns:dc="http://purl.org/dc/elements/1.1/"
   xmlns:cc="http://creativecommons.org/ns#"
   xmlns:rdf="http://www.w3.org/1999/02/22-rdf-syntax-ns#"
   xmlns:svg="http://www.w3.org/2000/svg"
   xmlns="http://www.w3.org/2000/svg"
   xmlns:xlink="http://www.w3.org/1999/xlink"
   xmlns:sodipodi="http://sodipodi.sourceforge.net/DTD/sodipodi-0.dtd"
   xmlns:inkscape="http://www.inkscape.org/namespaces/inkscape"
   width="86"
   height="86"
   id="svg2"
   version="1.1"
   inkscape:version="0.48.4 r9939"
   sodipodi:docname="harbour-feedme.svg"
   inkscape:export-filename="harbour-feedme.png"
   inkscape:export-xdpi="90"
   inkscape:export-ydpi="90">
  <defs
     id="defs4">
    <linearGradient
       id="linearGradient3815">
      <stop
         style="stop-color:#ffffff;stop-opacity:0.78431374;"
         offset="0"
         id="stop3817" />
      <stop
         style="stop-color:#ffffff;stop-opacity:0.78431374;"
         offset="1"
         id="stop3819" />
    </linearGradient>
    <linearGradient
       gradientUnits="userSpaceOnUse"
       y2="1051.2603"
       x2="20.144062"
       y1="1016.9266"
       x1="20.144062"
       id="linearGradient4466"
       xlink:href="#linearGradient4460"
       inkscape:collect="always"
       gradientTransform="translate(49.707811,5.2943231)" />
    <linearGradient
       id="linearGradient4460">
      <stop
         id="stop4462"
         offset="0"
         style="stop-color:#89b400;stop-opacity:1;" />
      <stop
         id="stop4464"
         offset="1"
         style="stop-color:#5b7800;stop-opacity:1;" />
    </linearGradient>
    <linearGradient
       inkscape:collect="always"
       xlink:href="#linearGradient4460"
       id="linearGradient3841"
       x1="59.242516"
       y1="18.822296"
       x2="26.345863"
       y2="77.157188"
       gradientUnits="userSpaceOnUse"
       gradientTransform="translate(0,966.36218)" />
    <linearGradient
       inkscape:collect="always"
       xlink:href="#linearGradient4460"
       id="linearGradient3848"
       gradientUnits="userSpaceOnUse"
       gradientTransform="translate(10.432462,-38.267901)"
       x1="20.144062"
       y1="1016.9266"
       x2="20.144062"
       y2="1051.2603" />
    <linearGradient
       inkscape:collect="always"
       xlink:href="#linearGradient4460"
       id="linearGradient3804"
       gradientUnits="userSpaceOnUse"
       gradientTransform="matrix(-1,0,0,1,86.000756,0)"
       x1="59.242516"
       y1="18.822296"
       x2="26.345863"
       y2="77.157188" />
    <linearGradient
       inkscape:collect="always"
       xlink:href="#linearGradient4460"
       id="linearGradient3813"
       gradientUnits="userSpaceOnUse"
       gradientTransform="matrix(-1,0,0,1,86.000756,0)"
       x1="42.034336"
       y1="0.84359968"
       x2="42.034336"
       y2="85.395592" />
    <linearGradient
       inkscape:collect="always"
       xlink:href="#linearGradient3815"
       id="linearGradient3821"
       x1="42.700554"
       y1="980.04663"
       x2="42.700554"
       y2="1044.1581"
       gradientUnits="userSpaceOnUse"
       gradientTransform="matrix(0.94444445,0,0,0.94444445,2.3888887,53.999805)" />
    <linearGradient
       inkscape:collect="always"
       xlink:href="#linearGradient4460"
       id="linearGradient3825"
       gradientUnits="userSpaceOnUse"
       gradientTransform="matrix(-1,0,0,1,86.001639,966.3621)"
       x1="42.034336"
       y1="0.84359968"
       x2="42.034336"
       y2="85.395592" />
    <linearGradient
       inkscape:collect="always"
       xlink:href="#linearGradient4460"
       id="linearGradient3829"
       gradientUnits="userSpaceOnUse"
       gradientTransform="matrix(-1,0,0,-1,86.000756,1052.3622)"
       x1="42.034336"
       y1="0.84359968"
       x2="42.034336"
       y2="85.395592" />
  </defs>
  <sodipodi:namedview
     id="base"
     pagecolor="#ffffff"
     bordercolor="#666666"
     borderopacity="1.0"
     inkscape:pageopacity="0.0"
     inkscape:pageshadow="2"
     inkscape:zoom="2"
     inkscape:cx="-98"
     inkscape:cy="122.99904"
     inkscape:document-units="px"
     inkscape:current-layer="layer1"
     showgrid="false"
     inkscape:showpageshadow="false"
     inkscape:window-width="1680"
     inkscape:window-height="985"
     inkscape:window-x="0"
     inkscape:window-y="38"
     inkscape:window-maximized="1"
     showguides="true"
     inkscape:guide-bbox="true">
    <sodipodi:guide
       orientation="-0.70710678,0.70710678"
       position="235.00626,-209.58055"
       id="guide3807" />
  </sodipodi:namedview>
  <metadata
     id="metadata7">
    <rdf:RDF>
      <cc:Work
         rdf:about="">
        <dc:format>image/svg+xml</dc:format>
        <dc:type
           rdf:resource="http://purl.org/dc/dcmitype/StillImage" />
        <dc:title></dc:title>
      </cc:Work>
    </rdf:RDF>
  </metadata>
  <g
     inkscape:label="Calque 1"
     inkscape:groupmode="layer"
     id="layer1"
     transform="translate(0,-966.36218)">
    <path
       id="path3823"
       d="m 42.313389,966.8621 0,0.0313 c -23.22296,0.36748 -41.81250011,19.15509 -41.81250011,42.4688 0,0.1575 -0.002,0.3116 0,0.4687 l 0,42.0313 85.00000011,0 0,-42.0313 c 0.002,-0.1571 0,-0.3112 0,-0.4687 0,-23.31371 -18.58955,-42.10132 -41.8125,-42.4688 l 0,-0.0313 -1.375,0 z"
       style="fill:url(#linearGradient3825);fill-opacity:1;stroke:none"
       inkscape:connector-curvature="0" />
    <path
       style="fill:url(#linearGradient3813);fill-opacity:1;stroke:none"
       d="M 42.3125 0.5 L 42.3125 0.53125 C 19.244932 0.8962712 0.74647899 19.434361 0.5 42.53125 C 0.49833971 42.686832 0.5 42.844009 0.5 43 C 0.5 43.1575 0.4983 43.31165 0.5 43.46875 C 0.74647899 66.565582 19.244932 85.10351 42.3125 85.46875 L 42.3125 85.5 L 43.6875 85.5 L 43.6875 85.46875 C 66.755068 85.103808 85.253521 66.565582 85.5 43.46875 C 85.50166 43.313169 85.5 43.155991 85.5 43 C 85.5 42.844009 85.50166 42.686832 85.5 42.53125 C 85.253521 19.434361 66.755068 0.8962712 43.6875 0.53125 L 43.6875 0.5 L 42.3125 0.5 z "
       transform="translate(0,966.36218)"
       id="path3802" />
    <path
       style="fill:url(#linearGradient3821);fill-opacity:1;fill-rule:nonzero;stroke:none"
       d="m 48.245146,982.02785 c -2.905818,-2.90577 -7.584524,-2.90577 -10.490318,0 l -26.575464,26.57565 c -2.9058189,2.9058 -2.9058189,7.5845 0,10.4903 l 20.89318,20.8933 21.849404,0.01 20.898696,-20.8987 c 2.90581,-2.9058 2.90581,-7.5844 -9e-6,-10.4903 l -26.57548,-26.57653 z m -4.392825,12.2497 3.147091,3.14717 c 0.58117,0.58121 0.58117,1.51697 0,2.09809 L 28.65228,1017.87 l -3.168945,0 -2.611633,-2.6116 c -0.581179,-0.5813 -0.581188,-1.517 0,-2.0981 l 18.882555,-18.88275 c 0.581171,-0.58121 1.516902,-0.58121 2.098064,0 z m -0.803148,16.68075 3.147082,3.1472 c 0.581128,0.5811 0.581154,1.5168 0,2.0981 l -9.670757,9.6706 -3.037823,0 -2.677211,-2.6771 c -0.581171,-0.5811 -0.581171,-1.517 -3.4e-5,-2.0981 l 10.140671,-10.1407 c 0.581153,-0.5811 1.51691,-0.5811 2.098072,0 z m 0.9452,14.9324 3.147099,3.147 c 0.581162,0.5812 0.581171,1.517 0,2.0981 l -2.61165,2.6117 -3.168936,0 -2.611669,-2.6117 c -0.58117,-0.5811 -0.58117,-1.5169 2.6e-5,-2.0981 l 3.147075,-3.147 c 0.581162,-0.5812 1.516893,-0.5812 2.098055,0 z"
       id="rect3005"
       inkscape:connector-curvature="0" />
    <rect
       style="fill:#666666;fill-opacity:1;fill-rule:nonzero;stroke:#808080;stroke-width:1;stroke-linecap:round;stroke-linejoin:round;stroke-miterlimit:4;stroke-opacity:1;stroke-dasharray:none;stroke-dashoffset:0"
       id="rect3007"
       width="2.1793528"
       height="0"
       x="-108.24091"
       y="131.7663"
       transform="translate(0,966.36218)"
       rx="0.72644901"
       ry="0" />
  </g>
</svg>
