<svg xmlns="http://www.w3.org/2000/svg" xmlns:svg="http://www.w3.org/2000/svg" id="svg2" width="40" height="40" version="1.1"><metadata id="metadata7"/><g id="layer1" transform="translate(0,-1012.3622)"><path style="fill:none;stroke:#fff;stroke-width:1;stroke-linecap:round;stroke-linejoin:round;stroke-opacity:.67450982" id="path2985" d="m 20,1015.4486 c -4.493012,0 -8.566372,1.7667 -11.5950911,4.6248 l -2.3454457,-1.2883 0.8588956,4.0632 0.8258612,4.0633 3.86503,-1.4866 3.865031,-1.5196 -2.081171,-1.1232 c 1.875254,-1.2955 4.155232,-2.0481 6.60689,-2.0481 6.422036,0 11.628125,5.2061 11.628125,11.6281 0,0.1004 0.0025,0.1979 0,0.2974 l 5.021236,2.7088 c 0.176267,-0.979 0.264276,-1.9765 0.264276,-3.0062 0,-9.3412 -7.572494,-16.9136 -16.913637,-16.9136 z m -16.6493614,13.9405 c -0.1725237,0.9689 -0.2642756,1.9546 -0.2642756,2.9731 0,9.3412 7.572493,16.9136 16.913637,16.9136 4.450554,0 8.476302,-1.7482 11.495987,-4.5587 l 2.279377,1.2553 -0.825861,-4.0632 -0.858896,-4.0633 -3.86503,1.4866 -3.86503,1.5196 2.147239,1.1561 c -1.856374,1.2543 -4.098863,1.9821 -6.507786,1.9821 -6.422036,0 -11.6281255,-5.2061 -11.6281255,-11.6281 0,-0.089 -0.00199,-0.1758 0,-0.2643 l -5.0212359,-2.7088 z"/></g></svg>