<?xml version="1.0" encoding="UTF-8" standalone="no"?>
<!-- Created with Inkscape (http://www.inkscape.org/) -->

<svg
   xmlns:dc="http://purl.org/dc/elements/1.1/"
   xmlns:cc="http://creativecommons.org/ns#"
   xmlns:rdf="http://www.w3.org/1999/02/22-rdf-syntax-ns#"
   xmlns:svg="http://www.w3.org/2000/svg"
   xmlns="http://www.w3.org/2000/svg"
   xmlns:sodipodi="http://sodipodi.sourceforge.net/DTD/sodipodi-0.dtd"
   xmlns:inkscape="http://www.inkscape.org/namespaces/inkscape"
   width="40"
   height="40"
   id="svg2"
   version="1.1"
   inkscape:version="0.48.4 r9939"
   sodipodi:docname="fetching.svg"
   inkscape:export-filename="/home/thebootroo/Projects/apps-4-sailfish_feed-me.git/qml/img/fetching.png"
   inkscape:export-xdpi="90"
   inkscape:export-ydpi="90">
  <defs
     id="defs4" />
  <sodipodi:namedview
     id="base"
     pagecolor="#ffffff"
     bordercolor="#666666"
     borderopacity="1.0"
     inkscape:pageopacity="0.0"
     inkscape:pageshadow="2"
     inkscape:zoom="17.512427"
     inkscape:cx="3.1860471"
     inkscape:cy="16.974233"
     inkscape:document-units="px"
     inkscape:current-layer="layer1"
     showgrid="false"
     inkscape:showpageshadow="false"
     borderlayer="true"
     showguides="true"
     inkscape:guide-bbox="true"
     inkscape:window-width="1920"
     inkscape:window-height="1022"
     inkscape:window-x="0"
     inkscape:window-y="30"
     inkscape:window-maximized="1">
    <sodipodi:guide
       orientation="0,1"
       position="22.843489,20.023895"
       id="guide3760" />
    <sodipodi:guide
       orientation="1,0"
       position="20.023895,20.023895"
       id="guide3762" />
  </sodipodi:namedview>
  <metadata
     id="metadata7">
    <rdf:RDF>
      <cc:Work
         rdf:about="">
        <dc:format>image/svg+xml</dc:format>
        <dc:type
           rdf:resource="http://purl.org/dc/dcmitype/StillImage" />
        <dc:title></dc:title>
      </cc:Work>
    </rdf:RDF>
  </metadata>
  <g
     inkscape:label="Calque 1"
     inkscape:groupmode="layer"
     id="layer1"
     transform="translate(0,-1012.3622)">
    <path
       style="fill:none;stroke:#ffffff;stroke-width:1;stroke-linecap:round;stroke-linejoin:round;stroke-opacity:0.67450982"
       d="m 20,1015.4486 c -4.493012,0 -8.566372,1.7667 -11.5950911,4.6248 l -2.3454457,-1.2883 0.8588956,4.0632 0.8258612,4.0633 3.86503,-1.4866 3.865031,-1.5196 -2.081171,-1.1232 c 1.875254,-1.2955 4.155232,-2.0481 6.60689,-2.0481 6.422036,0 11.628125,5.2061 11.628125,11.6281 0,0.1004 0.0025,0.1979 0,0.2974 l 5.021236,2.7088 c 0.176267,-0.979 0.264276,-1.9765 0.264276,-3.0062 0,-9.3412 -7.572494,-16.9136 -16.913637,-16.9136 z m -16.6493614,13.9405 c -0.1725237,0.9689 -0.2642756,1.9546 -0.2642756,2.9731 0,9.3412 7.572493,16.9136 16.913637,16.9136 4.450554,0 8.476302,-1.7482 11.495987,-4.5587 l 2.279377,1.2553 -0.825861,-4.0632 -0.858896,-4.0633 -3.86503,1.4866 -3.86503,1.5196 2.147239,1.1561 c -1.856374,1.2543 -4.098863,1.9821 -6.507786,1.9821 -6.422036,0 -11.6281255,-5.2061 -11.6281255,-11.6281 0,-0.089 -0.00199,-0.1758 0,-0.2643 l -5.0212359,-2.7088 z"
       id="path2985"
       inkscape:connector-curvature="0" />
  </g>
</svg>
