<?xml version="1.0" encoding="UTF-8" standalone="no"?>
<!-- Created with Inkscape (http://www.inkscape.org/) -->

<svg
   xmlns:dc="http://purl.org/dc/elements/1.1/"
   xmlns:cc="http://creativecommons.org/ns#"
   xmlns:rdf="http://www.w3.org/1999/02/22-rdf-syntax-ns#"
   xmlns:svg="http://www.w3.org/2000/svg"
   xmlns="http://www.w3.org/2000/svg"
   xmlns:sodipodi="http://sodipodi.sourceforge.net/DTD/sodipodi-0.dtd"
   xmlns:inkscape="http://www.inkscape.org/namespaces/inkscape"
   width="200"
   height="200"
   id="svg3760"
   version="1.1"
   inkscape:version="0.48.4 r9939"
   sodipodi:docname="logo.svg"
   inkscape:export-filename="/home/thebootroo/Projects/apps-4-sailfish_feed-me.git/qml/img/logo.png"
   inkscape:export-xdpi="225"
   inkscape:export-ydpi="225">
  <defs
     id="defs3762" />
  <sodipodi:namedview
     id="base"
     pagecolor="#ffffff"
     bordercolor="#666666"
     borderopacity="1.0"
     inkscape:pageopacity="0.0"
     inkscape:pageshadow="2"
     inkscape:zoom="2.3433594"
     inkscape:cx="-56.998326"
     inkscape:cy="77.106555"
     inkscape:document-units="px"
     inkscape:current-layer="layer1"
     showgrid="false"
     borderlayer="true"
     inkscape:showpageshadow="false"
     inkscape:window-width="1920"
     inkscape:window-height="1022"
     inkscape:window-x="0"
     inkscape:window-y="30"
     inkscape:window-maximized="1" />
  <metadata
     id="metadata3765">
    <rdf:RDF>
      <cc:Work
         rdf:about="">
        <dc:format>image/svg+xml</dc:format>
        <dc:type
           rdf:resource="http://purl.org/dc/dcmitype/StillImage" />
        <dc:title></dc:title>
      </cc:Work>
    </rdf:RDF>
  </metadata>
  <g
     inkscape:label="Calque 1"
     inkscape:groupmode="layer"
     id="layer1"
     transform="translate(0,-852.36218)">
    <path
       style="fill:#ffffff;fill-opacity:0.1254902;stroke:none"
       d="m 43.349213,1049.5943 c -1.74998,-0.6429 -3.82004,-1.672 -4.60014,-2.2869 -4.82589,-3.804 -64.209468,-63.77521 -64.701838,-65.34211 -0.33189,-1.0562 -0.91164,-1.9203 -1.28835,-1.9203 -0.37671,0 -1.13,-2.2623 -1.674,-5.0274 -1.09747,-5.5783 -0.15573,-12.09479 2.06948,-14.32001 0.69187,-0.69187 1.26195,-1.71059 1.26685,-2.26383 0.005,-0.55323 20.264269,-21.17822 45.020829,-45.8333 42.023279,-41.85101 45.281919,-44.89693 49.078185,-45.87431 7.85866,-2.02328 15.79489,-0.64984 21.07506,3.64722 5.63818,4.58842 86.832621,86.53867 87.942841,88.76146 0.70337,1.40824 1.66353,2.83447 2.13369,3.16941 0.47015,0.33493 0.82738,3.79151 0.79384,7.68126 -0.0521,6.0391 -0.39009,7.6334 -2.31363,10.913 -2.08993,3.5632 -62.44494,64.86411 -63.86325,64.86411 -0.35092,0 -1.30724,0.6721 -2.12516,1.4936 -3.18239,3.1962 -7.42241,3.603 -37.041201,3.5542 -21.991356,-0.036 -29.325916,-0.3171 -31.773206,-1.2161 l 0,0 z m 38.607726,-18.9865 c 3.7189,-2.5853 9.38151,-8.9526 9.38151,-10.5489 0,-0.8442 -3.31353,-4.8261 -7.36341,-8.8487 -5.68818,-5.6499 -7.74156,-7.1938 -9.02558,-6.7863 -2.18676,0.6941 -14.026016,12.5594 -14.723016,14.7554 -0.42259,1.3315 0.72256,2.9501 5.17795,7.3186 5.537756,5.4299 5.859376,5.6089 10.066336,5.6035 2.73731,0 5.13803,-0.5564 6.48621,-1.4936 l 0,0 z m -8.38378,-41.11161 c 9.77092,-9.8231 17.76529,-18.4892 17.76529,-19.2581 0,-2.2142 -13.11677,-14.94391 -15.39833,-14.94391 -2.72379,0 -40.032976,37.16091 -40.059196,39.90001 -0.0117,1.22391 1.83868,3.77731 5.10248,7.04111 5.05775,5.0578 5.18063,5.1209 9.97266,5.1209 l 4.85182,0 17.765276,-17.86001 0,0 z M 61.434503,952.70554 c 18.388866,-18.38636 29.903946,-30.52637 29.903946,-31.52687 0,-0.89773 -3.10477,-4.73178 -6.92668,-8.55369 -5.37297,-5.37297 -7.38486,-6.86824 -8.96936,-6.66616 -2.8929,0.36895 -64.330655,61.79347 -64.330655,64.31677 0,1.0576 2.07316,4.0272 4.90748,7.0293 l 4.90749,5.1982 5.30191,0.051 5.301909,0.051 29.90396,-29.89985 0,6e-5 z"
       id="path3779"
       inkscape:connector-curvature="0" />
  </g>
</svg>
