<?xml version="1.0" encoding="UTF-8" standalone="no"?>
<!-- Created with Inkscape (http://www.inkscape.org/) -->

<svg
   xmlns:dc="http://purl.org/dc/elements/1.1/"
   xmlns:cc="http://creativecommons.org/ns#"
   xmlns:rdf="http://www.w3.org/1999/02/22-rdf-syntax-ns#"
   xmlns:svg="http://www.w3.org/2000/svg"
   xmlns="http://www.w3.org/2000/svg"
   xmlns:sodipodi="http://sodipodi.sourceforge.net/DTD/sodipodi-0.dtd"
   xmlns:inkscape="http://www.inkscape.org/namespaces/inkscape"
   width="40"
   height="40"
   id="svg2"
   version="1.1"
   inkscape:version="0.48.4 r9939"
   sodipodi:docname="noimage.svg"
   inkscape:export-filename="/home/tboutroue/Projets/apps-4-sailfish_feed-me.git/qml/img/noimage.png"
   inkscape:export-xdpi="90"
   inkscape:export-ydpi="90">
  <defs
     id="defs4" />
  <sodipodi:namedview
     id="base"
     pagecolor="#ffffff"
     bordercolor="#666666"
     borderopacity="1.0"
     inkscape:pageopacity="0.0"
     inkscape:pageshadow="2"
     inkscape:zoom="7.9195959"
     inkscape:cx="17.566132"
     inkscape:cy="4.3817831"
     inkscape:document-units="px"
     inkscape:current-layer="layer1"
     showgrid="false"
     inkscape:showpageshadow="false"
     borderlayer="true"
     inkscape:window-width="1680"
     inkscape:window-height="985"
     inkscape:window-x="0"
     inkscape:window-y="38"
     inkscape:window-maximized="1" />
  <metadata
     id="metadata7">
    <rdf:RDF>
      <cc:Work
         rdf:about="">
        <dc:format>image/svg+xml</dc:format>
        <dc:type
           rdf:resource="http://purl.org/dc/dcmitype/StillImage" />
        <dc:title></dc:title>
      </cc:Work>
    </rdf:RDF>
  </metadata>
  <g
     inkscape:label="Layer 1"
     inkscape:groupmode="layer"
     id="layer1"
     transform="translate(0,-1012.3622)">
    <path
       style="fill:#ffffff;fill-opacity:0.1254902;fill-rule:nonzero;stroke:none"
       d="m 0,1012.3622 0,40 40,0 0,-40 z m 3.1907895,2.829 c 0.152339,-0.033 0.3199568,0.019 0.4276314,0.1316 L 20,1031.7043 36.381579,1015.3228 c 0.04709,-0.044 0.103536,-0.078 0.164473,-0.099 0.38368,-0.1108 0.735262,0.4668 0.460527,0.7567 L 20.625,1032.362 l 16.381579,16.3487 c 0.216023,0.1506 0.251601,0.5015 0.07021,0.6925 -0.181392,0.1909 -0.533687,0.1733 -0.695208,-0.035 L 20,1032.9872 3.6184209,1049.3687 c -0.1615209,0.208 -0.513817,0.2256 -0.6952087,0.035 -0.181392,-0.191 -0.1458138,-0.5419 0.070208,-0.6925 L 19.374999,1032.3625 2.9934202,1015.981 c -0.2181216,-0.2162 -0.1237275,-0.6505 0.1644737,-0.7567 0.0104,-0.011 0.021383,-0.022 0.032894,-0.033 z"
       id="rect2985"
       inkscape:connector-curvature="0"
       sodipodi:nodetypes="cccccccccccccscccsccccc" />
  </g>
</svg>
