<svg xmlns="http://www.w3.org/2000/svg" xmlns:svg="http://www.w3.org/2000/svg" id="svg2" width="40" height="40" version="1.1"><metadata id="metadata7"/><g id="layer1" transform="translate(0,-1012.3622)"><rect style="fill:none;stroke:#fff;stroke-width:1;stroke-linecap:butt;stroke-linejoin:miter;stroke-opacity:.50196081" id="rect2985" width="37" height="5" x="1.5" y="1045.862" rx="0" ry="5.334"/><path style="font-size:medium;font-style:normal;font-variant:normal;font-weight:400;font-stretch:normal;text-indent:0;text-align:start;text-decoration:none;line-height:normal;letter-spacing:normal;word-spacing:normal;text-transform:none;direction:ltr;block-progression:tb;writing-mode:lr-tb;text-anchor:start;baseline-shift:baseline;color:#000;fill:none;stroke:#fff;stroke-width:1;stroke-miterlimit:4;stroke-opacity:.50196081;stroke-dasharray:none;marker:none;visibility:visible;display:inline;overflow:visible;enable-background:accumulate;font-family:Sans;-inkscape-font-specification:Sans" id="path2987" d="m 19.78125,1015.1891 c -0.982769,0.108 -1.802539,1.0428 -1.78125,2.0313 l 0,21.0312 -7.625,-7.3437 c -0.7221143,-0.8524 -2.1993999,-0.897 -2.9716107,-0.09 -0.7722109,0.8073 -0.6620416,2.2812 0.2216107,2.9647 l 10.875,10.5 c 0.473866,0.4695 1.192732,0.6766 1.84375,0.5312 0.0315,-0.01 0.06276,-0.02 0.09375,-0.031 0.06349,-0.018 0.12609,-0.039 0.1875,-0.063 0.0315,-0.01 0.06276,-0.02 0.09375,-0.031 0.0315,-0.01 0.06276,-0.02 0.09375,-0.031 0.03184,-0.02 0.0631,-0.041 0.09375,-0.063 L 32.375,1033.5954 c 0.620079,-0.5633 0.822789,-1.5381 0.478717,-2.3019 -0.344072,-0.7639 -1.208417,-1.258 -2.041217,-1.1669 -0.443695,0.048 -0.869309,0.2496 -1.1875,0.5625 l -7.625,7.3438 0,-20.8125 c 0.02447,-1.1346 -1.090743,-2.1556 -2.21875,-2.0313 z"/></g></svg>