<?xml version="1.0" encoding="UTF-8" standalone="no"?>
<!-- Created with Inkscape (http://www.inkscape.org/) -->

<svg
   xmlns:dc="http://purl.org/dc/elements/1.1/"
   xmlns:cc="http://creativecommons.org/ns#"
   xmlns:rdf="http://www.w3.org/1999/02/22-rdf-syntax-ns#"
   xmlns:svg="http://www.w3.org/2000/svg"
   xmlns="http://www.w3.org/2000/svg"
   xmlns:sodipodi="http://sodipodi.sourceforge.net/DTD/sodipodi-0.dtd"
   xmlns:inkscape="http://www.inkscape.org/namespaces/inkscape"
   width="40"
   height="40"
   id="svg2"
   version="1.1"
   inkscape:version="0.48.4 r9939"
   sodipodi:docname="pending.svg"
   inkscape:export-filename="/home/thebootroo/Projects/apps-4-sailfish_feed-me.git/qml/img/pending.png"
   inkscape:export-xdpi="90"
   inkscape:export-ydpi="90">
  <defs
     id="defs4" />
  <sodipodi:namedview
     id="base"
     pagecolor="#ffffff"
     bordercolor="#666666"
     borderopacity="1.0"
     inkscape:pageopacity="0.0"
     inkscape:pageshadow="2"
     inkscape:zoom="62.758093"
     inkscape:cx="29.755859"
     inkscape:cy="9.855437"
     inkscape:document-units="px"
     inkscape:current-layer="layer1"
     showgrid="false"
     borderlayer="true"
     inkscape:showpageshadow="false"
     inkscape:window-width="1920"
     inkscape:window-height="1022"
     inkscape:window-x="0"
     inkscape:window-y="30"
     inkscape:window-maximized="1" />
  <metadata
     id="metadata7">
    <rdf:RDF>
      <cc:Work
         rdf:about="">
        <dc:format>image/svg+xml</dc:format>
        <dc:type
           rdf:resource="http://purl.org/dc/dcmitype/StillImage" />
        <dc:title></dc:title>
      </cc:Work>
    </rdf:RDF>
  </metadata>
  <g
     inkscape:label="Calque 1"
     inkscape:groupmode="layer"
     id="layer1"
     transform="translate(0,-1012.3622)">
    <rect
       style="fill:none;stroke:#ffffff;stroke-width:1;stroke-linecap:butt;stroke-linejoin:miter;stroke-opacity:0.50196081"
       id="rect2985"
       width="37"
       height="5"
       x="1.5"
       y="1045.8622"
       rx="0"
       ry="5.3342223" />
    <path
       style="font-size:medium;font-style:normal;font-variant:normal;font-weight:normal;font-stretch:normal;text-indent:0;text-align:start;text-decoration:none;line-height:normal;letter-spacing:normal;word-spacing:normal;text-transform:none;direction:ltr;block-progression:tb;writing-mode:lr-tb;text-anchor:start;baseline-shift:baseline;color:#000000;fill:none;stroke:#ffffff;stroke-width:1;stroke-miterlimit:4;stroke-opacity:0.50196081;stroke-dasharray:none;marker:none;visibility:visible;display:inline;overflow:visible;enable-background:accumulate;font-family:Sans;-inkscape-font-specification:Sans"
       d="m 19.78125,1015.1891 c -0.982769,0.108 -1.802539,1.0428 -1.78125,2.0313 l 0,21.0312 -7.625,-7.3437 c -0.7221143,-0.8524 -2.1993999,-0.897 -2.9716107,-0.09 -0.7722109,0.8073 -0.6620416,2.2812 0.2216107,2.9647 l 10.875,10.5 c 0.473866,0.4695 1.192732,0.6766 1.84375,0.5312 0.0315,-0.01 0.06276,-0.02 0.09375,-0.031 0.06349,-0.018 0.12609,-0.039 0.1875,-0.063 0.0315,-0.01 0.06276,-0.02 0.09375,-0.031 0.0315,-0.01 0.06276,-0.02 0.09375,-0.031 0.03184,-0.02 0.0631,-0.041 0.09375,-0.063 L 32.375,1033.5954 c 0.620079,-0.5633 0.822789,-1.5381 0.478717,-2.3019 -0.344072,-0.7639 -1.208417,-1.258 -2.041217,-1.1669 -0.443695,0.048 -0.869309,0.2496 -1.1875,0.5625 l -7.625,7.3438 0,-20.8125 c 0.02447,-1.1346 -1.090743,-2.1556 -2.21875,-2.0313 z"
       id="path2987"
       inkscape:connector-curvature="0"
       sodipodi:nodetypes="ccccscccccccccsccccc" />
  </g>
</svg>
